<?xml version="1.0" encoding="UTF-8" standalone="no"?>
<!-- Created with Inkscape (http://www.inkscape.org/) -->

<svg
   xmlns:dc="http://purl.org/dc/elements/1.1/"
   xmlns:cc="http://creativecommons.org/ns#"
   xmlns:rdf="http://www.w3.org/1999/02/22-rdf-syntax-ns#"
   xmlns:svg="http://www.w3.org/2000/svg"
   xmlns="http://www.w3.org/2000/svg"
   xmlns:sodipodi="http://sodipodi.sourceforge.net/DTD/sodipodi-0.dtd"
   xmlns:inkscape="http://www.inkscape.org/namespaces/inkscape"
   width="240"
   height="63.149597"
   viewBox="0 0 240 63.149598"
   id="svg2"
   version="1.1"
   inkscape:version="0.91 r13725"
   sodipodi:docname="logo.svg">
  <defs
     id="defs4" />
  <sodipodi:namedview
     id="base"
     pagecolor="#ffffff"
     bordercolor="#666666"
     borderopacity="1.0"
     inkscape:pageopacity="0.0"
     inkscape:pageshadow="2"
     inkscape:zoom="0.7"
     inkscape:cx="189.17583"
     inkscape:cy="142.23722"
     inkscape:document-units="px"
     inkscape:current-layer="layer1"
     showgrid="false"
     fit-margin-top="0"
     fit-margin-left="0"
     fit-margin-right="0"
     fit-margin-bottom="0"
     units="px"
     inkscape:window-width="1920"
     inkscape:window-height="1017"
     inkscape:window-x="0"
     inkscape:window-y="0"
     inkscape:window-maximized="1" />
  <metadata
     id="metadata7">
    <rdf:RDF>
      <cc:Work
         rdf:about="">
        <dc:format>image/svg+xml</dc:format>
        <dc:type
           rdf:resource="http://purl.org/dc/dcmitype/StillImage" />
        <dc:title></dc:title>
      </cc:Work>
    </rdf:RDF>
  </metadata>
  <g
     inkscape:label="Layer 1"
     inkscape:groupmode="layer"
     id="layer1"
     transform="translate(-2.1180727,-362.13871)">
    <g
       id="g4159"
       transform="matrix(0.2717937,0,0,0.2717937,1.5423939,309.69762)">
      <path
         d="m 667.33992,252.37627 c -8.5,0.69999 -22.1,27.79999 -30.2,45.7 2,-12.7 4,-26.3 3.9,-27.5 -0.2,-2.2 -3,-8 -10.2,-6.8 -0.1,6.09999 -1.4,15.5 -2.7,24.6 -4.7,9 -11.4,21.3 -13.9,23.3 -0.2,0.2 -0.5,0.1 -0.6,-0.2 -0.3,-0.7 -0.4,-1.6 -0.6,-2.8 -0.4,-1.8 -0.1,-16.1 5.7,-30.2 0,0 -4.5,-3.1 -9.1,-2.7 -1.1,0.1 -2.1,1 -3,2.4 l 0,0 c 0,0 0,0 0,0.1 -0.1,0.2 -0.2,0.4 -0.3,0.6 -2.7,4.5 -20,33 -21.6,33.2 -0.5,0 -1.2,-0.3 -1.5,-1.9 -4.7,-24.2 14.5,-47.4 19.7,-47.8 3.6,-0.3 3.9,6.2 4.4,8.7 0.4,1.9 10.1,0.3 9.1,-4.9 -0.9,-4.6 -6.6,-16.1 -15.5,-15.4 -8.6,0.7 -21,14.6 -27.1,32.4 l 0,0 -14.1,31.6 c 0.2,-21.2 5.3,-42 5.2,-43.1 -0.2,-1.4 -5,-4.9 -10.2,-4.3 -6.8,0.8 -14.4,17.5 -19.7,31.7 3.9,-20 9.5,-37.1 9.3,-38.1 -0.2,-1.4 -5,-5.9 -12.4,-5 -7.3,0.9 -19.7,27.5 -28.1,47.7 1.3,-10.9 2.4,-20.5 2.3,-21.5 -0.3,-2.2 -3.2,-7.9 -10.5,-6.5 0.2,14.8 -6,52.1 -5.5,55.6 0.5,3.5 6,4.1 9.7,4.4 17.8,-54 30.7,-60.4 30.7,-60.4 0,0 -9.4,36.3 -8.6,45 0.3,3.6 5,6 9.6,5.4 12.4,-40.6 22.8,-44 22.8,-44 0,0 -6.6,26.9 -4.7,41.5 0.6,4.4 6.2,5.9 10.8,5.4 1.9,-0.2 7.4,-15.8 9.5,-22.2 0.1,2.6 0.4,5.2 0.9,7.8 1.5,7.6 4.7,10.1 12.2,11.3 1.1,0.2 2.1,-0.2 2.7,-1.1 l 15.4,-23.8 c -0.3,5.39999 0,10.89999 0.9,15.89999 1,5.30001 8.9,5.9 11.9,5.7 1.6,-0.1 6.2,-6.2 10.8,-12.89999 -0.5,3.5 -0.8,5.89999 -0.8,6.69999 0.4,3.5 5.8,4.30001 9.5,4.80001 19.5,-46.60001 29.7,-50.60001 29.7,-50.60001 0,0 -5,31.40001 -2.7,41.90001 0.8,3.6 9.5,9.5 14.1,9.2 -6.1,-33.2 4.4,-61 4.3,-62.40001 -0.2,-1.4 -4.1,-7.09999 -11.5,-6.49999 z"
         id="XMLID_151_"
         inkscape:connector-curvature="0" />
      <path
         d="m 864.43992,193.07626 c -33.9,4.7 -100,64.9 -116.7,112.70001 0.9,-15.80001 4.4,-46.90001 3.2,-54.4 -1.5,-9.40001 -7.6,-16 -19,-14.40001 -11.4,1.6 -29.1,6 -41.6,0.7 0,0 -1.5,7.3 -0.9,11.3 0.6,4 7.5,8.1 18.2,6.7 0.5,-0.1 0.9,-0.1 1.4,-0.2 3.1,4.6 6.3,11.7 7.1,21.7 1.5,19.2 -10.5,40.60001 -14.1,41.10001 -3.6,0.5 -7.9,-8.10001 -9.6,-18.80001 -1.7,-10.69999 2.4,-28.19999 11.7,-38.19999 0,0 -2.5,-3.2 -7.5,-2.5 -4.9,0.69999 -19.1,16.39999 -16.4,42.39999 2.2,20.9 19.8,25 23,24.60001 11.7,-1.60001 26.5,-27.2 25.6,-48.90001 -0.5,-11.2 -4.7,-18.7 -9.1,-23.59999 8.2,-1.9 16.2,-3.5 19.2,-0.4 4.1,4.19999 -7.6,44.29999 -5,60.49999 1.3,8 5.7,13 9.8,16.1 0,0.5 0.1,1 0.1,1.5 1.9,11.7 13.6,13 13.6,13 8.4,-104.09999 108.4,-134.3 127.7,-137 0.1,-0.3 -8.8,-15.59999 -20.7,-13.9 z"
         id="XMLID_177_"
         inkscape:connector-curvature="0" />
      <g
         transform="translate(-348.56008,29.976265)"
         id="g4140">
        <path
           id="path4142"
           d="m 819,274.5 c 2.7,-4 4.5,-6.5 4.5,-6.5 11,-15.3 28.8,-45.6 25.3,-79.8 -0.4,-4.3 -8.3,-11.4 -13,-11 -11.2,0.9 -34,50.3 -30.7,100.5 -7.9,10.9 -16.3,22 -18.1,22.2 -1.1,0.1 -1.2,-0.8 -1.4,-2.6 -0.2,-1.8 -2.5,-15.4 9.3,-49.1 0,0 -2.8,-2.7 -7.4,-2.3 -3.3,0.3 -6,4.8 -8.1,11.3 -3.9,10.2 -18.8,48.6 -23.7,48.6 -1.2,0.1 -1.2,-3 -1.5,-5.8 -0.3,-2.7 3.7,-41.9 15.9,-60.9 0,0 -4.2,-4.2 -12.3,-3.5 -4.5,0.4 -12.6,18 -15.5,42.6 -2.6,6.5 -13.2,33.3 -15.3,33.5 -1,0.1 -1.7,-4 -2.2,-9.1 -5.7,-56 21.9,-95 21.9,-95 0,0 -5.5,-3.7 -11.3,-3.3 -8,0.6 -22.8,18.4 -23.9,69 -3.4,14.9 -11.8,48.3 -20.2,49 -8.9,0.7 -3.1,-50.4 6,-51.1 4,-0.3 5.9,3.6 6.7,3.5 0.6,0 1.1,-0.5 1.2,-1.1 0,0 2.8,-10.1 -2.5,-14.5 -1.1,-0.9 -1.9,-2 -8.1,-1.9 -7.3,0.6 -15.7,13.3 -19.8,27.8 -1.9,4.5 -5.5,12.1 -10.5,20.1 0.5,-3.9 0.7,-7.2 0.7,-9.4 -0.4,-7.9 -5.1,-19.3 -22.3,-23.5 10.1,-9.7 21.5,-28.8 22.8,-49 0,-3.5 -0.3,-22.5 -14,-22.1 -20.1,-0.4 -32.1,34.2 -38,69.5 -3.2,0 -6.4,0.1 -9.7,0.1 4.6,-26 9.5,-50.5 9.1,-73 0,-12.9 -19.4,-24.9 -37.4,-24.9 -18.9,0 -18.1,16.8 -16.7,17.8 1.9,-0.4 4.2,-0.7 6.8,-1 -1.5,20.8 -7.3,52.2 -18.3,83.6 -77.5,5.2 -165.7,18 -189.6,41.5 -1.8,1.3 -3.4,3.4 -4.5,6 -1.5,3.6 -2.7,10.9 -2.5,15.8 2,44.3 63.5,59.3 84,58.8 68.5,0 106.7,-56 127.3,-108.8 7.6,-0.8 15.2,-1.5 22.7,-2.1 -4.6,24.7 -8.4,49 -8.1,64 0.5,17.8 20.8,16.3 20.8,16.3 0,0 -1.4,-4.8 -1.6,-17.3 -0.4,-22.2 2.4,-43.6 5.8,-64.1 3.4,-0.2 6.8,-0.4 10.1,-0.5 -2.9,22.5 -3.2,43.7 -1.6,54.5 2.1,13.1 19.3,12.1 19.3,12.1 0,0 -6.6,-12.1 -3.9,-56.7 0.2,-3.4 0.5,-6.8 0.9,-10.2 26.1,0.1 25.6,9.3 25.6,14.2 0,11.4 -2.3,28.8 -20.2,37.4 0.2,4.6 4.2,7 6.3,7.5 1,0.3 3.4,0.3 4.1,0.1 1.9,-0.5 3.7,-1.4 5.3,-2.4 0.2,-0.1 0.3,-0.2 0.5,-0.3 0.3,-0.2 0.5,-0.3 0.8,-0.5 11.2,-7.7 19,-19.7 24,-29.8 2.8,21.6 12,26.8 17.7,26.4 7.8,-0.6 16,-15.1 22,-28.2 0.3,3.3 0.6,6.7 0.9,10.2 1.2,11.5 15.1,12 16.6,11.8 0.8,-0.1 6.5,-13.5 11.2,-25.3 0.1,2.9 0.3,5.8 0.6,8.8 0.7,6.8 13.2,9.1 15.3,9 0,0 9.8,-10.9 16.4,-22.8 0,3.3 0.1,6.3 0.3,8.8 0.5,5.3 11.2,9 14.2,8.7 1.5,-0.1 10.4,-12.1 18.9,-24 5.1,18.8 19.7,38.5 31.1,40.6 14,2.6 18,-5.1 18,-5.1 0,0 -27.3,-12.1 -37,-53.1 z M 439.7,381 c -34,1 -58.8,-26.8 -69.1,-47.3 -0.1,-0.3 -0.1,-0.6 0.1,-0.8 22.8,-20.7 97.8,-34.6 170.9,-44.3 C 521.8,337 489,381 439.7,381 Z M 587.5,271 c -6.6,0.3 -13.3,0.6 -20,0.9 11.7,-34.5 16.1,-65.1 17,-74.4 0.3,-2.7 -0.6,-6 -2,-8.3 9.6,0.8 18,3.6 18,10.6 0.1,8.1 -6.7,38.7 -13,71.2 z m 41,-0.5 c -0.1,0 -0.2,0 -0.3,0 5.1,-33.6 16.4,-61.8 23.5,-62 2,-0.1 4.2,5.2 4.3,15.1 0.1,17.6 -18.1,37.7 -27.5,46.9 z m 187.9,-11.4 c -3.6,-35.9 22.1,-71.4 22.1,-71.4 0,0 1.7,35.7 -21.9,72.8 -0.1,-0.5 -0.1,-0.9 -0.2,-1.4 z"
           inkscape:connector-curvature="0" />
      </g>
    </g>
  </g>
</svg>
