<?xml version="1.0" encoding="utf-8"?>
<!-- Generator: Adobe Illustrator 14.0.0, SVG Export Plug-In . SVG Version: 6.00 Build 43363)  -->
<!DOCTYPE svg PUBLIC "-//W3C//DTD SVG 1.1//EN" "http://www.w3.org/Graphics/SVG/1.1/DTD/svg11.dtd">
<svg version="1.1" id="Слой_1" xmlns="http://www.w3.org/2000/svg" xmlns:xlink="http://www.w3.org/1999/xlink" x="0px" y="0px"
	 width="80px" height="16px" viewBox="-30 0 80 16" enable-background="new -30 0 80 16" xml:space="preserve">
<path fill="#1A171B" d="M-22.6,15.5c0.2,0,0.3-0.1,0.5-0.2c0-0.1,0.1-0.2,0.1-0.399v-0.5c0-0.2,0-0.4-0.1-0.601s-0.2-0.3-0.4-0.6
	L-28,8l5.4-5.2c0.2-0.2,0.4-0.4,0.4-0.6C-22,2.1-22,1.9-22,1.7V1.1c0-0.2-0.1-0.3-0.2-0.5c-0.1,0-0.3-0.1-0.4-0.1
	c-0.3,0-0.5,0.1-0.8,0.4l-6,5.8C-29.8,7-30,7.3-30,7.7v0.5c0,0.399,0.2,0.8,0.5,1.1l6,5.8C-23.1,15.4-22.9,15.5-22.6,15.5"/>
<path fill="#1A171B" d="M42.6,0.5c-0.199,0-0.3,0.1-0.5,0.2c0,0.1-0.1,0.2-0.1,0.4v0.5c0,0.2,0,0.4,0.1,0.6
	c0.101,0.2,0.2,0.3,0.4,0.6L48,8l-5.4,5.2C42.4,13.4,42.2,13.6,42.2,13.8S42,14.1,42,14.3v0.5c0,0.2,0.1,0.3,0.2,0.5
	c0.1,0.101,0.3,0.2,0.5,0.2s0.5-0.1,0.8-0.4l6-5.8C49.8,9,50,8.7,50,8.3V7.7c0-0.4-0.2-0.8-0.5-1.1l-6-5.8
	C43.1,0.6,42.9,0.5,42.6,0.5"/>
</svg>
