<?xml version="1.0" encoding="utf-8"?>
<!-- Generator: Adobe Illustrator 14.0.0, SVG Export Plug-In . SVG Version: 6.00 Build 43363)  -->
<!DOCTYPE svg PUBLIC "-//W3C//DTD SVG 1.1//EN" "http://www.w3.org/Graphics/SVG/1.1/DTD/svg11.dtd">
<svg version="1.1" id="Слой_1" xmlns="http://www.w3.org/2000/svg" xmlns:xlink="http://www.w3.org/1999/xlink" x="0px" y="0px"
	 width="280px" height="40px" viewBox="-40 0 280 40" enable-background="new -40 0 280 40" xml:space="preserve">
<path fill="#3A589B" d="M240,20c0,11.045-8.955,20-20,20s-20-8.955-20-20s8.955-20,20-20S240,8.955,240,20"/>
<path fill="#4D77A2" d="M0,20c0,11.045-8.955,20-20,20s-20-8.955-20-20s8.955-20,20-20S0,8.955,0,20"/>
<path fill="#FFFFFF" d="M-20.755,28.771h1.57c0,0,0.474-0.053,0.715-0.313c0.223-0.239,0.216-0.688,0.216-0.688
	s-0.031-2.105,0.947-2.416c0.964-0.307,2.2,2.035,3.513,2.936c0.992,0.684,1.746,0.531,1.746,0.531l3.506-0.049
	c0,0,1.835-0.111,0.965-1.556c-0.072-0.118-0.507-1.067-2.608-3.017c-2.199-2.041-1.905-1.713,0.745-5.242
	c1.613-2.149,2.258-3.462,2.057-4.024c-0.193-0.536-1.378-0.394-1.378-0.394l-3.95,0.024c0,0-0.292-0.04-0.51,0.089
	c-0.212,0.127-0.348,0.425-0.348,0.425s-0.625,1.664-1.458,3.077c-1.758,2.989-2.462,3.145-2.749,2.96
	c-0.668-0.435-0.501-1.737-0.501-2.663c0-2.894,0.439-4.101-0.854-4.411c-0.428-0.104-0.745-0.173-1.842-0.184
	c-1.41-0.016-2.603,0.004-3.278,0.335c-0.449,0.219-0.795,0.71-0.585,0.737c0.261,0.035,0.853,0.161,1.167,0.587
	c0.404,0.551,0.39,1.786,0.39,1.786s0.233,3.407-0.543,3.83c-0.533,0.291-1.262-0.304-2.831-3.012
	c-0.802-1.388-1.408-2.921-1.408-2.921s-0.117-0.286-0.326-0.439c-0.254-0.187-0.607-0.245-0.607-0.245l-3.751,0.024
	c0,0-0.564,0.016-0.771,0.261c-0.183,0.218-0.014,0.669-0.014,0.669s2.937,6.873,6.263,10.337
	C-24.219,28.98-20.755,28.771-20.755,28.771"/>
<path fill="#6B463C" d="M60,0C48.954,0,40,8.954,40,20s8.954,20,20,20s20-8.954,20-20S71.046,0,60,0"/>
<path fill="#FFFFFF" d="M72.031,26.016c0,3.349-2.723,6.07-6.069,6.07H54.04c-3.347,0-6.071-2.723-6.071-6.07V14.094
	c0-3.347,2.725-6.07,6.071-6.07h11.922c3.349,0,6.069,2.724,6.069,6.07V26.016z"/>
<path fill="#6B463C" d="M65.962,10.643H54.04c-1.904,0-3.451,1.548-3.451,3.451v11.922c0,1.903,1.547,3.452,3.451,3.452h11.922
	c1.901,0,3.452-1.549,3.452-3.452V14.094C69.413,12.189,67.863,10.643,65.962,10.643 M60,26.252c-3.416,0-6.197-2.781-6.197-6.197
	c0-3.417,2.781-6.197,6.197-6.197c3.419,0,6.197,2.78,6.197,6.197C66.197,23.471,63.416,26.252,60,26.252 M66.396,15.139
	c-0.81,0-1.467-0.657-1.467-1.467c0-0.808,0.657-1.467,1.467-1.467c0.809,0,1.467,0.659,1.467,1.467
	C67.863,14.481,67.205,15.139,66.396,15.139"/>
<path fill="#6B463C" d="M60,16.477c-1.972,0-3.577,1.604-3.577,3.578s1.605,3.579,3.577,3.579c1.975,0,3.579-1.604,3.579-3.579
	C63.579,18.083,61.975,16.477,60,16.477"/>
<path fill="#CA3737" d="M140,0c11.046,0,20,8.954,20,20c0,11.044-8.954,20-20,20s-20-8.955-20-20S128.954,0,140,0"/>
<path fill="#FFFFFF" d="M149.333,15.417c0-0.083,0-0.166-0.083-0.25v-0.083c-0.25-0.75-0.916-1.25-1.75-1.25h0.167
	c0,0-3.25-0.5-7.667-0.5c-4.333,0-7.667,0.5-7.667,0.5h0.167c-0.833,0-1.5,0.5-1.75,1.25v0.083c0,0.084,0,0.167-0.083,0.25
	C130.583,16.25,130.334,18,130.334,20s0.249,3.75,0.333,4.583c0,0.082,0,0.166,0.083,0.25v0.082c0.25,0.75,0.917,1.25,1.75,1.25
	h-0.167c0,0,3.25,0.5,7.667,0.5c4.333,0,7.667-0.5,7.667-0.5H147.5c0.834,0,1.5-0.5,1.75-1.25v-0.082c0-0.084,0-0.168,0.083-0.25
	c0.084-0.834,0.334-2.584,0.334-4.583C149.667,18,149.5,16.25,149.333,15.417 M142.833,20.417l-3.916,2.833
	c-0.084,0.084-0.167,0.084-0.25,0.084s-0.167,0-0.25-0.084c-0.167-0.084-0.25-0.25-0.25-0.416v-5.667
	c0-0.167,0.083-0.333,0.25-0.417c0.167-0.083,0.333-0.083,0.5,0l3.916,2.834C142.917,19.667,143,19.833,143,20
	C143.083,20.167,143,20.333,142.833,20.417"/>
<path fill="#FFFFFF" d="M217.176,30.879h4.496v-10.88h3l0.396-3.75h-3.396l0.004-1.877c0-0.978,0.094-1.502,1.496-1.502h1.875V9.12
	h-3c-3.604,0-4.871,1.819-4.871,4.878v2.251h-2.246v3.75h2.246V30.879z"/>
</svg>
